<svg xmlns="http://www.w3.org/2000/svg" xmlns:xlink="http://www.w3.org/1999/xlink" width="500" zoomAndPan="magnify" viewBox="0 0 375 374.999991" height="500" preserveAspectRatio="xMidYMid meet" version="1.2"><defs/><g id="d474956ddb"><path style="fill:none;stroke-width:2;stroke-linecap:butt;stroke-linejoin:miter;stroke:#ffffff;stroke-opacity:1;stroke-miterlimit:4;" d="M -0.002755 1.001883 L 318.815905 0.997942 " transform="matrix(0.723315,-0.198282,0.198282,0.723315,10.858025,128.919308)"/><path style="fill:none;stroke-width:2;stroke-linecap:butt;stroke-linejoin:miter;stroke:#ffffff;stroke-opacity:1;stroke-miterlimit:4;" d="M 0.00190134 1.000284 L 27.946678 1.001821 " transform="matrix(-0.396534,0.636601,-0.636601,-0.396534,254.047692,48.981374)"/><path style="fill:none;stroke-width:2;stroke-linecap:butt;stroke-linejoin:miter;stroke:#ffffff;stroke-opacity:1;stroke-miterlimit:4;" d="M 0.00160308 1.000898 L 334.581692 0.998359 " transform="matrix(0.724802,-0.192773,0.192773,0.724802,97.634016,130.200637)"/><path style="fill:none;stroke-width:2;stroke-linecap:butt;stroke-linejoin:miter;stroke:#ffffff;stroke-opacity:1;stroke-miterlimit:4;" d="M 0.0000757828 0.999572 L 118.399394 1.001523 " transform="matrix(0.731637,0.153303,-0.153303,0.731637,253.57115,47.428821)"/><path style="fill:none;stroke-width:2;stroke-linecap:butt;stroke-linejoin:miter;stroke:#ffffff;stroke-opacity:1;stroke-miterlimit:4;" d="M 0.00190033 1.000192 L 32.908152 1.000192 " transform="matrix(0,0.75,-0.75,0,12.554832,130.209512)"/><path style="fill:none;stroke-width:2;stroke-linecap:butt;stroke-linejoin:miter;stroke:#ffffff;stroke-opacity:1;stroke-miterlimit:4;" d="M -0.000499756 0.999705 L 87.193516 0.997947 " transform="matrix(0.719753,-0.205033,0.205033,0.719753,11.072731,153.463951)"/><path style="fill:none;stroke-width:2;stroke-linecap:butt;stroke-linejoin:miter;stroke:#ffffff;stroke-opacity:1;stroke-miterlimit:4;" d="M -0.00143974 1.002235 L 189.613156 1.002235 " transform="matrix(0,0.75,-0.75,0,74.919645,136.270611)"/><path style="fill:none;stroke-width:2;stroke-linecap:butt;stroke-linejoin:miter;stroke:#ffffff;stroke-opacity:1;stroke-miterlimit:4;" d="M -0.0011156 0.99884 L 188.373935 0.998841 " transform="matrix(0.0000000013065,0.748569,-0.748569,0.0000000013065,98.57192,130.930523)"/><path style="fill:none;stroke-width:2;stroke-linecap:butt;stroke-linejoin:miter;stroke:#ffffff;stroke-opacity:1;stroke-miterlimit:4;" d="M -0.000256869 0.999109 L 309.704984 1.000366 " transform="matrix(0.724529,-0.193799,0.193799,0.724529,116.287029,133.010442)"/><path style="fill:none;stroke-width:2;stroke-linecap:butt;stroke-linejoin:miter;stroke:#ffffff;stroke-opacity:1;stroke-miterlimit:4;" d="M -0.00259869 1.001372 L 91.728065 0.99811 " transform="matrix(0.724444,-0.194114,0.194114,0.724444,186.772346,137.133433)"/><path style="fill:none;stroke-width:2;stroke-linecap:butt;stroke-linejoin:miter;stroke:#ffffff;stroke-opacity:1;stroke-miterlimit:4;" d="M -0.0022153 1.000974 L 31.263737 1.001723 " transform="matrix(-0.673289,-0.316572,0.316572,-0.673289,273.298815,130.923243)"/><path style="fill:none;stroke-width:2;stroke-linecap:butt;stroke-linejoin:miter;stroke:#ffffff;stroke-opacity:1;stroke-miterlimit:4;" d="M -0.000874008 0.999097 L 118.463765 0.99982 " transform="matrix(0.575723,-0.476181,0.476181,0.575723,271.931003,129.760319)"/><path style="fill:none;stroke-width:2;stroke-linecap:butt;stroke-linejoin:miter;stroke:#ffffff;stroke-opacity:1;stroke-miterlimit:4;" d="M -0.00225138 0.99881 L 225.935547 1.001888 " transform="matrix(0.684702,0.306076,-0.306076,0.684702,186.479128,137.176177)"/><path style="fill:none;stroke-width:2;stroke-linecap:butt;stroke-linejoin:miter;stroke:#ffffff;stroke-opacity:1;stroke-miterlimit:4;" d="M 0.0000292632 1.001866 L 310.398027 0.998909 " transform="matrix(0.72338,-0.194439,0.194439,0.72338,115.859865,266.716682)"/><path style="fill:none;stroke-width:2;stroke-linecap:butt;stroke-linejoin:miter;stroke:#ffffff;stroke-opacity:1;stroke-miterlimit:4;" d="M -0.000537028 1.000009 L 224.360646 1.000045 " transform="matrix(0.686341,0.299392,-0.299392,0.686341,116.139606,133.048189)"/><path style="fill:none;stroke-width:2;stroke-linecap:butt;stroke-linejoin:miter;stroke:#ffffff;stroke-opacity:1;stroke-miterlimit:4;" d="M -0.0016802 0.997035 L 185.223369 1.000087 " transform="matrix(0.723589,-0.193885,0.193885,0.723589,136.175093,236.973544)"/><path style="fill:none;stroke-width:2;stroke-linecap:butt;stroke-linejoin:miter;stroke:#ffffff;stroke-opacity:1;stroke-miterlimit:4;" d="M -0.00115843 1.002347 L 32.319318 1.000043 " transform="matrix(0.717438,-0.192237,0.192237,0.717438,73.976112,277.753311)"/><path style="fill:none;stroke-width:2;stroke-linecap:butt;stroke-linejoin:miter;stroke:#ffffff;stroke-opacity:1;stroke-miterlimit:4;" d="M -0.000640038 0.997841 L 34.03062 0.997841 " transform="matrix(0,0.749655,-0.749655,0,137.544912,212.316886)"/><path style="fill:none;stroke-width:2;stroke-linecap:butt;stroke-linejoin:miter;stroke:#ffffff;stroke-opacity:1;stroke-miterlimit:4;" d="M -0.000253075 1.002177 L 67.041426 1.002177 " transform="matrix(0,0.74965,-0.74965,0,117.708314,217.50019)"/><path style="fill:none;stroke-width:2;stroke-linecap:butt;stroke-linejoin:miter;stroke:#ffffff;stroke-opacity:1;stroke-miterlimit:4;" d="M -0.00230672 1.001664 L 26.948293 0.99769 " transform="matrix(0.724444,-0.194114,0.194114,0.724444,117.084578,216.816871)"/><g style="fill:#ffffff;fill-opacity:1;"><g transform="translate(121.365662, 294.821352)"><path style="stroke:none" d="M 1.078125 -15.09375 L -2.625 -14.09375 L -2.828125 -15.625 L 6.296875 -18.109375 L 6.484375 -16.5625 L 2.59375 -15.5 L 4.515625 -1.234375 L 3 -0.8125 Z M 1.078125 -15.09375 "/></g></g><g style="fill:#ffffff;fill-opacity:1;"><g transform="translate(142.792213, 288.996013)"><path style="stroke:none" d="M -0.78125 -16.1875 L 0.734375 -16.59375 L 1.578125 -9.984375 L 9.390625 -12.09375 L 8.546875 -18.71875 L 10.03125 -19.125 L 12.046875 -3.28125 L 10.546875 -2.875 L 9.609375 -10.59375 L 1.734375 -8.453125 L 2.71875 -0.734375 L 1.1875 -0.328125 Z M -0.78125 -16.1875 "/></g></g><g style="fill:#ffffff;fill-opacity:1;"><g transform="translate(169.971066, 281.606767)"><path style="stroke:none" d="M -0.78125 -16.1875 L 7.5625 -18.453125 L 7.734375 -16.90625 L 0.9375 -15.0625 L 1.5625 -9.859375 L 8.421875 -11.71875 L 8.625 -10.203125 L 1.765625 -8.328125 L 2.515625 -2.265625 L 9.4375 -4.140625 L 9.671875 -2.625 L 1.1875 -0.328125 Z M -0.78125 -16.1875 "/></g></g><g style="fill:#ffffff;fill-opacity:1;"><g transform="translate(193.92354, 275.094691)"><path style="stroke:none" d=""/></g></g><g style="fill:#ffffff;fill-opacity:1;"><g transform="translate(212.187378, 270.129214)"><path style="stroke:none" d="M 4.828125 -0.921875 C 3.773438 -0.640625 2.800781 -0.707031 1.90625 -1.125 C 1.019531 -1.550781 0.257812 -2.316406 -0.375 -3.421875 L 0.921875 -4.28125 C 1.367188 -3.425781 1.898438 -2.84375 2.515625 -2.53125 C 3.128906 -2.226562 3.769531 -2.164062 4.4375 -2.34375 C 4.914062 -2.476562 5.328125 -2.71875 5.671875 -3.0625 C 6.023438 -3.414062 6.269531 -3.847656 6.40625 -4.359375 C 6.550781 -4.878906 6.550781 -5.40625 6.40625 -5.9375 C 6.238281 -6.5625 5.941406 -7.078125 5.515625 -7.484375 C 5.085938 -7.890625 4.453125 -8.328125 3.609375 -8.796875 L 1.78125 -9.8125 C 1.144531 -10.15625 0.632812 -10.5625 0.25 -11.03125 C -0.125 -11.507812 -0.398438 -12.078125 -0.578125 -12.734375 C -0.742188 -13.367188 -0.765625 -14 -0.640625 -14.625 C -0.523438 -15.25 -0.242188 -15.804688 0.203125 -16.296875 C 0.648438 -16.785156 1.242188 -17.132812 1.984375 -17.34375 C 2.847656 -17.570312 3.679688 -17.503906 4.484375 -17.140625 C 5.285156 -16.773438 5.984375 -16.113281 6.578125 -15.15625 L 5.25 -14.375 C 4.882812 -14.988281 4.441406 -15.429688 3.921875 -15.703125 C 3.398438 -15.984375 2.851562 -16.046875 2.28125 -15.890625 C 1.914062 -15.785156 1.609375 -15.597656 1.359375 -15.328125 C 1.117188 -15.066406 0.960938 -14.75 0.890625 -14.375 C 0.816406 -14 0.835938 -13.585938 0.953125 -13.140625 C 1.085938 -12.660156 1.285156 -12.257812 1.546875 -11.9375 C 1.816406 -11.613281 2.203125 -11.320312 2.703125 -11.0625 L 4.09375 -10.3125 C 5.207031 -9.695312 6.066406 -9.09375 6.671875 -8.5 C 7.285156 -7.90625 7.703125 -7.210938 7.921875 -6.421875 C 8.117188 -5.703125 8.125 -4.957031 7.9375 -4.1875 C 7.757812 -3.414062 7.398438 -2.734375 6.859375 -2.140625 C 6.316406 -1.554688 5.640625 -1.148438 4.828125 -0.921875 Z M 4.828125 -0.921875 "/></g></g><g style="fill:#ffffff;fill-opacity:1;"><g transform="translate(234.972405, 263.934538)"><path style="stroke:none" d="M 3.578125 -8.328125 L -2.671875 -15.65625 L -1.03125 -16.109375 L 4.078125 -10.046875 L 7.734375 -18.5 L 9.53125 -18.984375 L 5.078125 -8.625 L 5.984375 -1.625 L 4.515625 -1.21875 Z M 3.578125 -8.328125 "/></g></g><g style="fill:#ffffff;fill-opacity:1;"><g transform="translate(259.773914, 257.191632)"><path style="stroke:none" d="M -0.765625 -16.1875 L -0.421875 -16.28125 L 11.203125 -6.71875 L 9.6875 -19.03125 L 11.1875 -19.4375 L 13.125 -3.578125 L 12.8125 -3.484375 L 1.203125 -13.03125 L 2.703125 -0.734375 L 1.1875 -0.328125 Z M -0.765625 -16.1875 "/></g></g><g style="fill:#ffffff;fill-opacity:1;"><g transform="translate(288.09898, 249.490759)"><path style="stroke:none" d="M 1.078125 -15.09375 L -2.625 -14.09375 L -2.828125 -15.625 L 6.296875 -18.109375 L 6.484375 -16.5625 L 2.59375 -15.5 L 4.515625 -1.234375 L 3 -0.8125 Z M 1.078125 -15.09375 "/></g></g><g style="fill:#ffffff;fill-opacity:1;"><g transform="translate(309.525531, 243.665419)"><path style="stroke:none" d="M 12.203125 -3.3125 L 9.1875 -7.84375 L 2.734375 -6.09375 L 1.203125 -0.328125 L -0.484375 0.125 L 4.15625 -17.515625 L 4.5 -17.609375 L 13.765625 -3.75 Z M 3.1875 -7.796875 L 8.28125 -9.171875 L 4.875 -14.28125 Z M 3.1875 -7.796875 "/></g></g><g style="fill:#ffffff;fill-opacity:1;"><g transform="translate(336.577017, 236.310801)"><path style="stroke:none" d="M 3.390625 -9.515625 L -1.890625 -15.875 L -0.28125 -16.3125 L 4.015625 -11.0625 L 6.90625 -18.265625 L 8.6875 -18.75 L 5.09375 -9.828125 L 10.84375 -2.953125 L 9.140625 -2.484375 L 4.40625 -8.21875 L 1.203125 -0.328125 L -0.484375 0.125 Z M 3.390625 -9.515625 "/></g></g></g></svg>