<svg width="70" height="70" viewBox="0 0 70 70" fill="none" xmlns="http://www.w3.org/2000/svg">
<g clip-path="url(#clip0_79_1773)">
<mask id="mask0_79_1773" style="mask-type:luminance" maskUnits="userSpaceOnUse" x="0" y="0" width="70" height="70">
<path d="M70 0H0V70H70V0Z" fill="white"/>
</mask>
<g mask="url(#mask0_79_1773)">
<path opacity="0.4" d="M20.7372 17.3814L47.0456 8.60221C58.8581 4.66471 65.2747 11.1105 61.3664 22.923L52.5872 49.2314C46.6955 66.9355 37.0122 66.9355 31.1206 49.2314L28.5247 41.4147L20.7081 38.8189C3.03305 32.9564 3.03305 23.3022 20.7372 17.3814Z" fill="#F55D3E"/>
<path d="M35.3503 36.1085C34.7961 36.1085 34.2419 35.9043 33.8044 35.4668C32.9586 34.621 32.9586 33.221 33.8044 32.3752L44.8877 21.2335C45.7336 20.3877 47.1336 20.3877 47.9794 21.2335C48.8253 22.0793 48.8253 23.4793 47.9794 24.3252L36.8961 35.4668C36.4586 35.8752 35.9044 36.1085 35.3503 36.1085Z" fill="#F55D3E"/>
</g>
</g>
<defs>
<clipPath id="clip0_79_1773">
<rect width="70" height="70" fill="white"/>
</clipPath>
</defs>
</svg>
