<svg width="18" height="18" viewBox="0 0 18 18" fill="none" xmlns="http://www.w3.org/2000/svg">
<g clip-path="url(#clip0_65_6181)">
<mask id="mask0_65_6181" style="mask-type:luminance" maskUnits="userSpaceOnUse" x="0" y="0" width="18" height="18">
<path d="M18 0H0V18H18V0Z" fill="white"/>
</mask>
<g mask="url(#mask0_65_6181)">
<path d="M2.03256 12.7644L3.33756 10.1544C3.69756 9.4269 3.69756 8.5794 3.33756 7.8519L2.03256 5.23443C0.915062 2.99943 3.32256 0.636931 5.53506 1.80693L6.69006 2.42193C6.85506 2.50443 6.98256 2.63943 7.05006 2.80443L11.3176 12.2919C11.4901 12.6819 11.3326 13.1394 10.9576 13.3344L5.52756 16.1919C3.32256 17.3619 0.915062 14.9994 2.03256 12.7644Z" fill="white"/>
<path opacity="0.4" d="M12.2327 11.7003L9.43517 5.49033C9.12017 4.79283 9.87017 4.08783 10.5452 4.44783L14.8727 6.72783C16.7102 7.6953 16.7102 10.3203 14.8727 11.2878L13.3427 12.0903C12.9302 12.3003 12.4277 12.1278 12.2327 11.7003Z" fill="white"/>
</g>
</g>
<defs>
<clipPath id="clip0_65_6181">
<rect width="18" height="18" fill="white"/>
</clipPath>
</defs>
</svg>
