<svg width="18" height="18" viewBox="0 0 18 18" fill="none" xmlns="http://www.w3.org/2000/svg">
<g clip-path="url(#clip0_65_6188)">
<mask id="mask0_65_6188" style="mask-type:luminance" maskUnits="userSpaceOnUse" x="0" y="0" width="18" height="18">
<path d="M18 0H0V18H18V0Z" fill="white"/>
</mask>
<g mask="url(#mask0_65_6188)">
<path d="M12.7652 2.04015L10.1551 3.34515C9.42765 3.70515 8.58015 3.70515 7.85265 3.34515L5.23516 2.03265C3.00016 0.91515 0.637662 3.33015 1.80766 5.54265L2.42266 6.69765C2.50516 6.85515 2.64016 6.98265 2.80516 7.05765L12.2926 11.3251C12.6826 11.4977 13.1401 11.3401 13.3351 10.9651L16.1926 5.53515C17.3551 3.33015 15.0001 0.91515 12.7652 2.04015Z" fill="white"/>
<path opacity="0.4" d="M11.7 12.2319L5.48997 9.43444C4.79247 9.11944 4.08747 9.86944 4.44747 10.5444L6.72747 14.8719C7.695 16.7094 10.32 16.7094 11.2875 14.8719L12.09 13.3419C12.3 12.9294 12.12 12.4269 11.7 12.2319Z" fill="white"/>
</g>
</g>
<defs>
<clipPath id="clip0_65_6188">
<rect width="18" height="18" fill="white"/>
</clipPath>
</defs>
</svg>
