<svg width="70" height="70" viewBox="0 0 70 70" fill="none" xmlns="http://www.w3.org/2000/svg">
<g clip-path="url(#clip0_79_1765)">
<mask id="mask0_79_1765" style="mask-type:luminance" maskUnits="userSpaceOnUse" x="0" y="0" width="70" height="70">
<path d="M70 0H0V70H70V0Z" fill="white"/>
</mask>
<g mask="url(#mask0_79_1765)">
<path opacity="0.4" d="M64.1667 48.1249V56.8749C64.1667 61.2499 61.25 64.1666 56.875 64.1666H17.5C18.6958 64.1666 19.9208 63.9916 21.0583 63.6124C21.3792 63.4958 21.7 63.3791 22.0208 63.2333C23.0416 62.8249 24.0334 62.2416 24.9084 61.4833C25.1709 61.2791 25.4625 61.0166 25.725 60.7541L25.8416 60.6374L45.675 40.8333H56.875C61.25 40.8333 64.1667 43.7499 64.1667 48.1249Z" fill="#ABFF4F"/>
<path opacity="0.6" d="M53.5789 32.9317L45.6748 40.8359L25.8413 60.64C27.883 58.54 29.1664 55.6525 29.1664 52.5025V24.3277L37.0706 16.4235C40.1623 13.3318 44.3039 13.3318 47.3956 16.4235L53.5789 22.6068C56.6706 25.6985 56.6706 29.84 53.5789 32.9317Z" fill="#ABFF4F"/>
<path d="M21.875 5.83325H13.125C8.75004 5.83325 5.83337 8.74992 5.83337 13.1249V52.4999C5.83337 53.2874 5.92084 54.0749 6.06668 54.8332C6.15418 55.2124 6.24168 55.5916 6.35835 55.9707C6.50418 56.4082 6.65004 56.8457 6.82504 57.2541C6.85421 57.2832 6.85424 57.3124 6.85424 57.3124C6.8834 57.3124 6.8834 57.3124 6.85424 57.3416C7.26257 58.1582 7.72921 58.9457 8.28337 59.6749C8.60421 60.0541 8.92507 60.4041 9.2459 60.7541C9.56674 61.1041 9.91671 61.3957 10.2959 61.6874L10.3251 61.7166C11.0542 62.2707 11.8417 62.7374 12.6584 63.1457C12.6875 63.1166 12.6876 63.1166 12.6876 63.1457C13.1251 63.3499 13.5625 63.4957 14.0292 63.6416C14.4084 63.7582 14.7876 63.8457 15.1667 63.9333C15.9251 64.0791 16.7125 64.1666 17.5 64.1666C18.6959 64.1666 19.9209 63.9916 21.0584 63.6124C21.3792 63.4957 21.7 63.3791 22.0208 63.2332C23.0417 62.8249 24.0334 62.2416 24.9084 61.4832C25.1709 61.2791 25.4626 61.0166 25.7251 60.7541L25.8417 60.6374C27.8833 58.5374 29.1667 55.6499 29.1667 52.4999V13.1249C29.1667 8.74992 26.25 5.83325 21.875 5.83325ZM17.5 56.8749C15.0792 56.8749 13.125 54.9207 13.125 52.4999C13.125 50.0791 15.0792 48.1249 17.5 48.1249C19.9209 48.1249 21.875 50.0791 21.875 52.4999C21.875 54.9207 19.9209 56.8749 17.5 56.8749Z" fill="#ABFF4F"/>
</g>
</g>
<defs>
<clipPath id="clip0_79_1765">
<rect width="70" height="70" fill="white"/>
</clipPath>
</defs>
</svg>
