<svg width="70" height="70" viewBox="0 0 70 70" fill="none" xmlns="http://www.w3.org/2000/svg">
<g clip-path="url(#clip0_65_6152)">
<mask id="mask0_65_6152" style="mask-type:luminance" maskUnits="userSpaceOnUse" x="0" y="0" width="70" height="70">
<path d="M70 0H0V70H70V0Z" fill="white"/>
</mask>
<g mask="url(#mask0_65_6152)">
<path d="M49.5833 32.0833C47.9792 32.0833 46.6667 30.7708 46.6667 29.1667V26.25C46.6667 20.4167 43.75 17.5 37.9167 17.5H26.25C20.4167 17.5 17.5 20.4167 17.5 26.25V43.75C17.5 49.5833 20.4167 52.5 26.25 52.5H43.75C49.5833 52.5 52.5 49.5833 52.5 43.75V35C52.5 33.3958 51.1875 32.0833 49.5833 32.0833ZM29.1667 26.9792H35C36.1958 26.9792 37.1875 27.9708 37.1875 29.1667C37.1875 30.3625 36.1958 31.3542 35 31.3542H29.1667C27.9708 31.3542 26.9792 30.3625 26.9792 29.1667C26.9792 27.9708 27.9708 26.9792 29.1667 26.9792ZM40.8333 43.0208H29.1667C27.9708 43.0208 26.9792 42.0292 26.9792 40.8333C26.9792 39.6375 27.9708 38.6458 29.1667 38.6458H40.8333C42.0292 38.6458 43.0208 39.6375 43.0208 40.8333C43.0208 42.0292 42.0292 43.0208 40.8333 43.0208Z" fill="#2DC7FF"/>
<path opacity="0.4" d="M47.2202 5.83325H22.8076C12.191 5.83325 5.86182 12.1624 5.86182 22.7791V47.1916C5.86182 57.8083 12.191 64.1374 22.8076 64.1374H47.2202C57.8369 64.1374 64.1661 57.8083 64.1661 47.1916V22.7791C64.1661 12.1624 57.8369 5.83325 47.2202 5.83325Z" fill="#2DC7FF"/>
</g>
</g>
<defs>
<clipPath id="clip0_65_6152">
<rect width="70" height="70" fill="white"/>
</clipPath>
</defs>
</svg>
