<svg width="70" height="70" viewBox="0 0 70 70" fill="none" xmlns="http://www.w3.org/2000/svg">
<g clip-path="url(#clip0_65_6144)">
<mask id="mask0_65_6144" style="mask-type:luminance" maskUnits="userSpaceOnUse" x="0" y="0" width="70" height="70">
<path d="M70 0H0V70H70V0Z" fill="white"/>
</mask>
<g mask="url(#mask0_65_6144)">
<path opacity="0.4" d="M61.9792 37.946C61.5709 40.4543 60.7834 42.8168 59.8209 45.0627C59.4125 44.5377 59.0625 43.9252 58.8584 43.2543L57.6625 38.996C56.9042 36.9835 54.9792 35.7002 52.7334 35.7002C50.5459 35.7002 48.6792 37.1002 47.8917 39.1127L47.6875 39.7835L46.725 43.3418C46.2292 45.0918 44.9167 46.4335 43.1084 46.9293L39.5209 47.8627C37.1292 48.5335 35.5834 50.6043 35.5834 52.996C35.5834 55.3877 37.1292 57.4293 39.4042 58.071L43.1084 59.0627C43.6917 59.2377 44.2167 59.5002 44.6834 59.8502C42.8459 60.6085 40.9792 61.2502 38.9375 61.6293C32.375 62.8835 26.075 61.921 20.6792 59.3543C19.8042 58.946 18.3458 58.7418 17.3833 58.9752C15.3708 59.4418 11.9583 60.2877 9.07082 60.9585C6.29999 61.6293 4.60832 59.9377 5.27915 57.1668L7.26249 48.8835C7.49582 47.921 7.29165 46.4335 6.88332 45.5585C4.43332 40.396 3.44165 34.4168 4.46249 28.1167C6.41665 16.0126 16.1875 6.24172 28.2917 4.25839C48.2417 0.991719 65.2459 17.9959 61.9792 37.946Z" fill="#F55D3E"/>
<path d="M49.8459 29.1082C49.6126 29.2248 49.3501 29.254 49.0876 29.254C48.1834 29.254 47.3668 28.7291 47.0459 27.8541C45.5584 23.9166 42.4668 20.7666 38.5293 19.2499C37.4209 18.8124 36.8668 17.5582 37.2751 16.4207C37.7126 15.3124 38.9959 14.7582 40.1043 15.1666C45.2084 17.1499 49.2043 21.2041 51.1293 26.3082C51.5668 27.4457 50.9834 28.6999 49.8459 29.1082Z" fill="#F55D3E"/>
<path d="M65.9167 53.0831C65.9167 53.3456 65.7709 53.9289 65.0709 54.1623L61.3667 55.1831C58.1876 56.0581 55.7959 58.4498 54.9209 61.6289L53.9292 65.2456C53.6959 66.0623 53.0542 66.1498 52.7626 66.1498C52.4709 66.1498 51.8292 66.0623 51.5959 65.2456L50.6042 61.5998C49.7292 58.4498 47.3084 56.0581 44.1584 55.1831L40.5126 54.1914C39.7251 53.9581 39.6376 53.2873 39.6376 53.0248C39.6376 52.7331 39.7251 52.0623 40.5126 51.8289L44.1876 50.8664C47.3376 49.9623 49.7292 47.5706 50.6042 44.4206L51.6542 40.5998C51.9167 39.9581 52.5001 39.8706 52.7626 39.8706C53.0251 39.8706 53.6376 39.9581 53.8709 40.5414L54.9209 44.3914C55.7959 47.5414 58.2167 49.9331 61.3667 50.8373L65.1292 51.8581C65.8876 52.1498 65.9167 52.8206 65.9167 53.0539V53.0831Z" fill="#F55D3E"/>
</g>
</g>
<defs>
<clipPath id="clip0_65_6144">
<rect width="70" height="70" fill="white"/>
</clipPath>
</defs>
</svg>
