<svg width="18" height="18" viewBox="0 0 18 18" fill="none" xmlns="http://www.w3.org/2000/svg">
<g clip-path="url(#clip0_65_6167)">
<mask id="mask0_65_6167" style="mask-type:luminance" maskUnits="userSpaceOnUse" x="0" y="0" width="18" height="18">
<path d="M18 0H0V18H18V0Z" fill="white"/>
</mask>
<g mask="url(#mask0_65_6167)">
<path d="M9 1.5C4.8675 1.5 1.5 4.8675 1.5 9C1.5 13.1325 4.8675 16.5 9 16.5C13.1325 16.5 16.5 13.1325 16.5 9C16.5 4.8675 13.1325 1.5 9 1.5ZM7.875 12.0975C6.7875 12.0975 5.91 11.2125 5.91 10.1325C5.91 7.8075 7.8 5.9175 10.125 5.9175C11.2125 5.9175 12.09 6.8025 12.09 7.8825C12.09 10.2 10.2 12.0975 7.875 12.0975Z" fill="#FF4000"/>
</g>
</g>
<defs>
<clipPath id="clip0_65_6167">
<rect width="18" height="18" fill="white"/>
</clipPath>
</defs>
</svg>
