<svg width="26" height="26" viewBox="0 0 26 26" fill="none" xmlns="http://www.w3.org/2000/svg">
<g filter="url(#filter0_d_65_6278)">
<g clip-path="url(#clip0_65_6278)">
<mask id="mask0_65_6278" style="mask-type:luminance" maskUnits="userSpaceOnUse" x="4" y="0" width="18" height="18">
<path d="M22 0H4V18H22V0Z" fill="white"/>
</mask>
<g mask="url(#mask0_65_6278)">
<path d="M10.75 4.5C9.925 4.5 9.25 5.175 9.25 6C9.25 6.825 9.925 7.5 10.75 7.5C11.575 7.5 12.25 6.825 12.25 6" stroke="white" stroke-width="1.5" stroke-linecap="round" stroke-linejoin="round"/>
<path d="M5.5 9.6675V11.25C5.5 15 7 16.5 10.75 16.5H15.25C19 16.5 20.5 15 20.5 11.25V7.5" stroke="white" stroke-width="1.5" stroke-linecap="round" stroke-linejoin="round"/>
<path d="M13.75 1.5H10.75C7 1.5 5.5 3 5.5 6.75" stroke="white" stroke-width="1.5" stroke-linecap="round" stroke-linejoin="round"/>
<path d="M18.3549 1.94249L15.6324 4.66499C15.5274 4.76999 15.4224 4.97249 15.4074 5.12249L15.2574 6.16499C15.2049 6.53999 15.4674 6.80249 15.8424 6.74999L16.8849 6.59999C17.0274 6.57749 17.2374 6.47999 17.3424 6.37499L20.0649 3.65249C20.5374 3.17999 20.7549 2.63999 20.0649 1.94999C19.3674 1.24499 18.8274 1.46999 18.3549 1.94249Z" stroke="white" stroke-width="1.5" stroke-miterlimit="10" stroke-linecap="round" stroke-linejoin="round"/>
<path d="M17.9651 2.33276C18.1976 3.15776 18.8426 3.80276 19.6676 4.03526" stroke="white" stroke-width="1.5" stroke-miterlimit="10" stroke-linecap="round" stroke-linejoin="round"/>
<path d="M6.00244 14.2122L9.69994 11.7297C10.2924 11.3322 11.1474 11.3772 11.6799 11.8347L11.9274 12.0522C12.5124 12.5547 13.4574 12.5547 14.0424 12.0522L17.1624 9.37468C17.7474 8.87218 18.6924 8.87218 19.2774 9.37468L20.4999 10.4247" stroke="white" stroke-width="1.5" stroke-linecap="round" stroke-linejoin="round"/>
</g>
</g>
</g>
<defs>
<filter id="filter0_d_65_6278" x="0" y="0" width="26" height="26" filterUnits="userSpaceOnUse" color-interpolation-filters="sRGB">
<feFlood flood-opacity="0" result="BackgroundImageFix"/>
<feColorMatrix in="SourceAlpha" type="matrix" values="0 0 0 0 0 0 0 0 0 0 0 0 0 0 0 0 0 0 127 0" result="hardAlpha"/>
<feOffset dy="4"/>
<feGaussianBlur stdDeviation="2"/>
<feComposite in2="hardAlpha" operator="out"/>
<feColorMatrix type="matrix" values="0 0 0 0 0 0 0 0 0 0 0 0 0 0 0 0 0 0 0.25 0"/>
<feBlend mode="normal" in2="BackgroundImageFix" result="effect1_dropShadow_65_6278"/>
<feBlend mode="normal" in="SourceGraphic" in2="effect1_dropShadow_65_6278" result="shape"/>
</filter>
<clipPath id="clip0_65_6278">
<rect x="4" width="18" height="18" rx="5" fill="white"/>
</clipPath>
</defs>
</svg>
