<svg width="18" height="18" viewBox="0 0 18 18" fill="none" xmlns="http://www.w3.org/2000/svg">
<g clip-path="url(#clip0_65_6213)">
<mask id="mask0_65_6213" style="mask-type:luminance" maskUnits="userSpaceOnUse" x="0" y="0" width="18" height="18">
<path d="M18 0H0V18H18V0Z" fill="white"/>
</mask>
<g mask="url(#mask0_65_6213)">
<path opacity="0.4" d="M13.7625 14.76C13.35 15.8175 12.345 16.5 11.2125 16.5H6.78749C5.64749 16.5 4.64999 15.8175 4.23749 14.76C3.82499 13.695 4.10998 12.5175 4.94998 11.7525L7.9875 9H10.02L13.05 11.7525C13.89 12.5175 14.1675 13.695 13.7625 14.76Z" fill="#F55D3E"/>
<path d="M10.365 13.6045H7.635C7.35 13.6045 7.125 13.372 7.125 13.0945C7.125 12.8095 7.3575 12.5845 7.635 12.5845H10.365C10.65 12.5845 10.875 12.817 10.875 13.0945C10.875 13.372 10.6425 13.6045 10.365 13.6045Z" fill="#F55D3E"/>
<path d="M13.7627 3.24C13.3502 2.1825 12.3452 1.5 11.2127 1.5H6.78762C5.65512 1.5 4.65012 2.1825 4.23762 3.24C3.83262 4.305 4.11012 5.4825 4.95762 6.2475L7.98765 9H10.0202L13.0502 6.2475C13.8902 5.4825 14.1677 4.305 13.7627 3.24ZM10.3652 5.4225H7.63515C7.35012 5.4225 7.12512 5.19 7.12512 4.9125C7.12512 4.635 7.35762 4.4025 7.63515 4.4025H10.3652C10.6502 4.4025 10.8752 4.635 10.8752 4.9125C10.8752 5.19 10.6427 5.4225 10.3652 5.4225Z" fill="#F55D3E"/>
</g>
</g>
<defs>
<clipPath id="clip0_65_6213">
<rect width="18" height="18" fill="white"/>
</clipPath>
</defs>
</svg>
