<svg width="70" height="70" viewBox="0 0 70 70" fill="none" xmlns="http://www.w3.org/2000/svg">
<g clip-path="url(#clip0_641_1940)">
<mask id="mask0_641_1940" style="mask-type:luminance" maskUnits="userSpaceOnUse" x="0" y="0" width="70" height="70">
<path d="M70 0H0V70H70V0Z" fill="white"/>
</mask>
<g mask="url(#mask0_641_1940)">
<path opacity="0.4" d="M35.0002 63.963C20.3002 63.963 8.31274 52.0047 8.31274 37.2755V31.7922C8.31274 30.6547 9.24608 29.7505 10.3544 29.7505C11.4627 29.7505 12.3961 30.6838 12.3961 31.7922V37.2755C12.3961 49.7297 22.5169 59.8505 34.9711 59.8505C47.4252 59.8505 57.5461 49.7297 57.5461 37.2755V31.7922C57.5461 30.6547 58.4794 29.7505 59.5877 29.7505C60.6961 29.7505 61.6294 30.6838 61.6294 31.7922V37.2755C61.6877 52.0047 49.7002 63.963 35.0002 63.963Z" fill="#2DC7FF"/>
<path d="M34.9997 5.83325C25.1997 5.83325 17.208 13.8249 17.208 23.6249V37.3041C17.208 47.1041 25.1997 55.0957 34.9997 55.0957C44.7997 55.0957 52.7913 47.1041 52.7913 37.3041V23.6249C52.7913 13.8249 44.7997 5.83325 34.9997 5.83325ZM41.358 30.8874C41.1538 31.6749 40.4247 32.1999 39.6372 32.1999C39.4913 32.1999 39.3163 32.1708 39.1705 32.1416C36.1955 31.3249 33.0455 31.3249 30.0705 32.1416C29.108 32.4041 28.1455 31.8499 27.883 30.8874C27.6205 29.9541 28.1747 28.9624 29.1372 28.6999C32.7247 27.7083 36.5163 27.7083 40.1038 28.6999C41.0663 28.9624 41.6205 29.9249 41.358 30.8874ZM43.8372 22.8083C43.5747 23.5374 42.9038 23.9749 42.1747 23.9749C41.9705 23.9749 41.7663 23.9458 41.5622 23.8583C37.0997 22.2249 32.1997 22.2249 27.7372 23.8583C26.8038 24.2083 25.783 23.7416 25.433 22.8083C25.1122 21.9041 25.5788 20.8833 26.5122 20.5333C31.7622 18.6374 37.5372 18.6374 42.758 20.5333C43.6913 20.8833 44.158 21.9041 43.8372 22.8083Z" fill="#2DC7FF"/>
</g>
</g>
<defs>
<clipPath id="clip0_641_1940">
<rect width="70" height="70" fill="white"/>
</clipPath>
</defs>
</svg>
