<svg width="24" height="24" viewBox="0 0 24 24" fill="none" xmlns="http://www.w3.org/2000/svg">
<g clip-path="url(#clip0_65_6052)">
<mask id="mask0_65_6052" style="mask-type:luminance" maskUnits="userSpaceOnUse" x="0" y="0" width="24" height="24">
<path d="M24 0H0V24H24V0Z" fill="white"/>
</mask>
<g mask="url(#mask0_65_6052)">
<path d="M2 10.9895V5.70953C2 4.37953 2.77 4.05953 3.71 4.99953L6.3 7.58953C6.69 7.97953 7.33 7.97953 7.71 7.58953L11.29 3.99953C11.68 3.60953 12.32 3.60953 12.7 3.99953L16.29 7.58953C16.68 7.97953 17.32 7.97953 17.7 7.58953L20.29 4.99953C21.23 4.05953 22 4.37953 22 5.70953V15.2995C22 18.2995 20 20.2995 17 20.2995H7C4.24 20.2995 2 18.0595 2 15.2995" stroke="white" stroke-width="1.5" stroke-linecap="round" stroke-linejoin="round"/>
</g>
</g>
<defs>
<clipPath id="clip0_65_6052">
<rect width="24" height="24" fill="white"/>
</clipPath>
</defs>
</svg>
