<svg width="18" height="18" viewBox="0 0 18 18" fill="none" xmlns="http://www.w3.org/2000/svg">
<g clip-path="url(#clip0_65_6104)">
<mask id="mask0_65_6104" style="mask-type:luminance" maskUnits="userSpaceOnUse" x="0" y="0" width="18" height="18">
<path d="M18 0H0V18H18V0Z" fill="white"/>
</mask>
<g mask="url(#mask0_65_6104)">
<path d="M15.7201 3.82537C16.5301 4.72537 16.6726 6.01537 16.2451 7.83037L15.5101 10.9654C14.8801 13.6729 13.6351 14.7679 11.2951 14.5429C10.9201 14.5129 10.5151 14.4454 10.0801 14.3404L8.82015 14.0404C5.69263 13.2979 4.72513 11.7529 5.46013 8.61787L6.19514 5.47537C6.34514 4.83787 6.52513 4.28287 6.75013 3.82537C7.62765 2.01037 9.12015 1.52287 11.6251 2.11537L12.8776 2.40787" stroke="#2DC7FF" stroke-width="1.5" stroke-linecap="round" stroke-linejoin="round"/>
<path d="M11.2949 14.5422C10.8299 14.8572 10.2449 15.1197 9.53243 15.3522L8.34743 15.7422C5.36989 16.7022 3.80239 15.8997 2.83489 12.9222L1.87489 9.9597C0.91489 6.98221 1.70989 5.40721 4.68739 4.44721L5.87239 4.05721C6.17989 3.95971 6.47239 3.87721 6.74989 3.82471C6.52489 4.28221 6.34489 4.83721 6.19489 5.47471L5.45989 8.6172C4.72489 11.7522 5.69239 13.2972 8.81993 14.0397L10.0799 14.3397C10.5149 14.4447 10.9199 14.5122 11.2949 14.5422Z" stroke="#2DC7FF" stroke-width="1.5" stroke-linecap="round" stroke-linejoin="round"/>
</g>
</g>
<defs>
<clipPath id="clip0_65_6104">
<rect width="18" height="18" fill="white"/>
</clipPath>
</defs>
</svg>
