<svg width="70" height="70" viewBox="0 0 70 70" fill="none" xmlns="http://www.w3.org/2000/svg">
<g clip-path="url(#clip0_65_6133)">
<mask id="mask0_65_6133" style="mask-type:luminance" maskUnits="userSpaceOnUse" x="0" y="0" width="70" height="70">
<path d="M70 0H0V70H70V0Z" fill="white"/>
</mask>
<g mask="url(#mask0_65_6133)">
<path opacity="0.4" d="M62.7083 24.4124V46.1416C62.7083 46.5791 62.5625 47.0166 62.1833 47.3957C57.9541 51.6541 50.4291 59.2374 46.1125 63.5832C45.7333 63.9916 45.2375 64.1666 44.7416 64.1666H21.4958C13.65 64.1666 7.29163 57.8082 7.29163 49.9624V24.4124C7.29163 16.5666 13.65 10.2083 21.4958 10.2083H48.5041C56.35 10.2083 62.7083 16.5666 62.7083 24.4124Z" fill="#ABFF4F"/>
<path d="M24.1792 18.3458C22.9542 18.3458 21.9917 17.3541 21.9917 16.1583V8.02075C21.9917 6.82492 22.9542 5.83325 24.1792 5.83325C25.4042 5.83325 26.3667 6.82492 26.3667 8.02075V16.1291C26.3667 17.3541 25.4042 18.3458 24.1792 18.3458Z" fill="#ABFF4F"/>
<path d="M45.8208 18.3458C44.5958 18.3458 43.6333 17.3541 43.6333 16.1583V8.02075C43.6333 6.79575 44.625 5.83325 45.8208 5.83325C47.0458 5.83325 48.0083 6.82492 48.0083 8.02075V16.1291C48.0083 17.3541 47.0458 18.3458 45.8208 18.3458Z" fill="#ABFF4F"/>
<path d="M43.108 37.0735H21.4662C20.2412 37.0735 19.2787 36.0818 19.2787 34.886C19.2787 33.6902 20.2704 32.6985 21.4662 32.6985H43.108C44.333 32.6985 45.2955 33.6902 45.2955 34.886C45.2955 36.0818 44.333 37.0735 43.108 37.0735Z" fill="#ABFF4F"/>
<path d="M34.9996 47.8914H21.4662C20.2412 47.8914 19.2787 46.8997 19.2787 45.7039C19.2787 44.4789 20.2704 43.5164 21.4662 43.5164H34.9996C36.2246 43.5164 37.1871 44.508 37.1871 45.7039C37.1871 46.8997 36.2246 47.8914 34.9996 47.8914Z" fill="#ABFF4F"/>
<path d="M62.708 46.1406C62.708 46.5781 62.5621 47.0156 62.183 47.3948C57.9538 51.6531 50.4288 59.2364 46.1121 63.5823C45.733 63.9906 45.2371 64.1656 44.7413 64.1656C43.7788 64.1656 42.8455 63.4073 42.8455 62.2989V52.0906C42.8455 47.8323 46.4621 44.3031 50.8955 44.3031C53.6663 44.2739 57.5163 44.2739 60.8121 44.2739C61.9496 44.2739 62.708 45.1781 62.708 46.1406Z" fill="#ABFF4F"/>
</g>
</g>
<defs>
<clipPath id="clip0_65_6133">
<rect width="70" height="70" fill="white"/>
</clipPath>
</defs>
</svg>
