<svg width="70" height="70" viewBox="0 0 70 70" fill="none" xmlns="http://www.w3.org/2000/svg">
<g clip-path="url(#clip0_65_6159)">
<mask id="mask0_65_6159" style="mask-type:luminance" maskUnits="userSpaceOnUse" x="0" y="0" width="70" height="70">
<path d="M70 0H0V70H70V0Z" fill="white"/>
</mask>
<g mask="url(#mask0_65_6159)">
<path opacity="0.4" d="M59.5005 47.6315C58.6839 49.819 56.9631 51.4815 54.7172 52.2398C51.5672 53.2898 48.3297 54.0773 45.063 54.6315C44.7422 54.6898 44.4214 54.7482 44.1005 54.7773C43.5756 54.8648 43.0505 54.9232 42.5256 54.9815C41.8839 55.069 41.213 55.1273 40.5422 55.1857C38.7047 55.3315 36.8964 55.419 35.0589 55.419C33.1922 55.419 31.3256 55.3315 29.4881 55.1565C28.7006 55.0982 27.9422 55.0107 27.1839 54.894C26.7464 54.8357 26.3089 54.7773 25.9006 54.719C25.5797 54.6607 25.2589 54.6315 24.9381 54.5732C21.7006 54.0482 18.4922 53.2607 15.3714 52.2107C13.038 51.4232 11.2589 49.7607 10.4714 47.6315C9.68388 45.5315 9.97555 43.0815 11.2297 40.9815L14.5255 35.4982C15.2255 34.3023 15.8672 31.9982 15.8672 30.5982V25.1731C15.8672 14.5856 24.4714 5.98145 35.0589 5.98145C45.6172 5.98145 54.2214 14.5856 54.2214 25.1731V30.5982C54.2214 31.9982 54.863 34.3023 55.5922 35.4982L58.888 40.9815C60.0839 43.0232 60.3172 45.4148 59.5005 47.6315Z" fill="#FF4000"/>
<path d="M35.0006 31.3851C33.7756 31.3851 32.7839 30.3934 32.7839 29.1684V20.1269C32.7839 18.9019 33.7756 17.9102 35.0006 17.9102C36.2256 17.9102 37.2173 18.9019 37.2173 20.1269V29.1684C37.1881 30.3934 36.1964 31.3851 35.0006 31.3851Z" fill="#FF4000"/>
<path d="M43.2547 58.3624C42.0297 61.7458 38.7922 64.1666 35.0006 64.1666C32.6964 64.1666 30.4214 63.2333 28.8172 61.5708C27.8838 60.6958 27.1838 59.5291 26.7755 58.3333C27.1547 58.3916 27.5338 58.4207 27.9422 58.4791C28.613 58.5666 29.3131 58.6541 30.0131 58.7124C31.6756 58.8582 33.3672 58.9457 35.0589 58.9457C36.7214 58.9457 38.3839 58.8582 40.0172 58.7124C40.6297 58.6541 41.2422 58.6249 41.8256 58.5374C42.2922 58.4791 42.7589 58.4208 43.2547 58.3624Z" fill="#FF4000"/>
</g>
</g>
<defs>
<clipPath id="clip0_65_6159">
<rect width="70" height="70" fill="white"/>
</clipPath>
</defs>
</svg>
