<svg width="18" height="18" viewBox="0 0 18 18" fill="none" xmlns="http://www.w3.org/2000/svg">
<g clip-path="url(#clip0_65_6095)">
<mask id="mask0_65_6095" style="mask-type:luminance" maskUnits="userSpaceOnUse" x="0" y="0" width="18" height="18">
<path d="M18 0H0V18H18V0Z" fill="white"/>
</mask>
<g mask="url(#mask0_65_6095)">
<path opacity="0.4" d="M6.23987 11.4528L11.1449 6.54785" stroke="#68D425" stroke-width="1.5" stroke-linecap="round" stroke-linejoin="round"/>
<path opacity="0.4" d="M6.54751 7.77757C7.05699 7.77757 7.46999 7.36461 7.46999 6.85512C7.46999 6.34564 7.05699 5.93262 6.54751 5.93262C6.03803 5.93262 5.625 6.34564 5.625 6.85512C5.625 7.36461 6.03803 7.77757 6.54751 7.77757Z" stroke="#68D425" stroke-width="1.5" stroke-linecap="round" stroke-linejoin="round"/>
<path opacity="0.4" d="M11.4525 12.0674C11.962 12.0674 12.375 11.6544 12.375 11.1449C12.375 10.6354 11.962 10.2224 11.4525 10.2224C10.9431 10.2224 10.53 10.6354 10.53 11.1449C10.53 11.6544 10.9431 12.0674 11.4525 12.0674Z" stroke="#68D425" stroke-width="1.5" stroke-linecap="round" stroke-linejoin="round"/>
<path d="M9 16.5C13.1421 16.5 16.5 13.1421 16.5 9C16.5 4.85786 13.1421 1.5 9 1.5C4.85786 1.5 1.5 4.85786 1.5 9C1.5 13.1421 4.85786 16.5 9 16.5Z" stroke="#68D425" stroke-width="1.5" stroke-linecap="round" stroke-linejoin="round"/>
</g>
</g>
<defs>
<clipPath id="clip0_65_6095">
<rect width="18" height="18" fill="white"/>
</clipPath>
</defs>
</svg>
