<svg width="24" height="24" viewBox="0 0 24 24" fill="none" xmlns="http://www.w3.org/2000/svg">
<g clip-path="url(#clip0_65_6058)">
<mask id="mask0_65_6058" style="mask-type:luminance" maskUnits="userSpaceOnUse" x="0" y="0" width="24" height="24">
<path d="M24 0H0V24H24V0Z" fill="white"/>
</mask>
<g mask="url(#mask0_65_6058)">
<path d="M20 11.03V17C20 21 19 22 15 22H9C5 22 4 21 4 17V7C4 3 5 2 9 2H15C19 2 20 3 20 7" stroke="white" stroke-width="1.5" stroke-linecap="round" stroke-linejoin="round"/>
<path d="M14 5.5H10" stroke="white" stroke-width="1.5" stroke-linecap="round" stroke-linejoin="round"/>
<path d="M12.0002 19.1C12.8562 19.1 13.5502 18.406 13.5502 17.55C13.5502 16.694 12.8562 16 12.0002 16C11.1442 16 10.4502 16.694 10.4502 17.55C10.4502 18.406 11.1442 19.1 12.0002 19.1Z" stroke="white" stroke-width="1.5" stroke-linecap="round" stroke-linejoin="round"/>
</g>
</g>
<defs>
<clipPath id="clip0_65_6058">
<rect width="24" height="24" fill="white"/>
</clipPath>
</defs>
</svg>
