<svg width="40" height="40" viewBox="0 0 40 40" fill="none" xmlns="http://www.w3.org/2000/svg">
<g clip-path="url(#clip0_65_6073)">
<mask id="mask0_65_6073" style="mask-type:luminance" maskUnits="userSpaceOnUse" x="0" y="0" width="40" height="40">
<path d="M40 0H0V40H40V0Z" fill="white"/>
</mask>
<g mask="url(#mask0_65_6073)">
<path opacity="0.4" d="M30.2335 36.0329C28.7668 36.4662 27.0335 36.6662 25.0002 36.6662H15.0002C12.9668 36.6662 11.2335 36.4662 9.76685 36.0329C10.1335 31.6995 14.5835 28.2827 20.0002 28.2827C25.4168 28.2827 29.8668 31.6995 30.2335 36.0329Z" stroke="white" stroke-width="2" stroke-linecap="round" stroke-linejoin="round"/>
<path d="M36.6667 14.9999V24.9999C36.6667 31.2999 34.7667 34.7499 30.2334 36.0333C28.7667 36.4666 27.0334 36.6666 25 36.6666H15C12.9667 36.6666 11.2334 36.4666 9.76671 36.0333C5.23337 34.7499 3.33337 31.2999 3.33337 24.9999V14.9999C3.33337 6.66659 6.66671 3.33325 15 3.33325H25C33.3334 3.33325 36.6667 6.66659 36.6667 14.9999Z" stroke="white" stroke-width="2" stroke-linecap="round" stroke-linejoin="round"/>
<path opacity="0.4" d="M25.9665 17.6332C25.9665 20.9332 23.2998 23.6165 19.9998 23.6165C16.6998 23.6165 14.0332 20.9332 14.0332 17.6332C14.0332 14.3332 16.6998 11.6665 19.9998 11.6665C23.2998 11.6665 25.9665 14.3332 25.9665 17.6332Z" stroke="white" stroke-width="2" stroke-linecap="round" stroke-linejoin="round"/>
</g>
</g>
<defs>
<clipPath id="clip0_65_6073">
<rect width="40" height="40" fill="white"/>
</clipPath>
</defs>
</svg>
