<svg width="24" height="24" viewBox="0 0 24 24" fill="none" xmlns="http://www.w3.org/2000/svg">
<g clip-path="url(#clip0_467_1252)">
<mask id="mask0_467_1252" style="mask-type:luminance" maskUnits="userSpaceOnUse" x="0" y="0" width="24" height="24">
<path d="M24 0H0V24H24V0Z" fill="white"/>
</mask>
<g mask="url(#mask0_467_1252)">
<path d="M7 7.85C6.06 8.98 5.5 10.42 5.5 12C5.5 15.59 8.41 18.5 12 18.5C15.59 18.5 18.5 15.59 18.5 12C18.5 8.41 15.59 5.5 12 5.5" stroke="white" stroke-width="1.5" stroke-linecap="round" stroke-linejoin="round"/>
<path d="M19.14 19.14L19.01 19.01M19.01 4.99L19.14 4.86M4.86 19.14L4.99 19.01M12 2.08V2M12 22V21.92M2.08 12H2M22 12H21.92M4.99 4.99L4.86 4.86" stroke="white" stroke-width="2" stroke-linecap="round" stroke-linejoin="round"/>
</g>
</g>
<defs>
<clipPath id="clip0_467_1252">
<rect width="24" height="24" fill="white"/>
</clipPath>
</defs>
</svg>
