<svg width="24" height="24" viewBox="0 0 24 24" fill="none" xmlns="http://www.w3.org/2000/svg">
<g clip-path="url(#clip0_65_6289)">
<mask id="mask0_65_6289" style="mask-type:luminance" maskUnits="userSpaceOnUse" x="0" y="0" width="24" height="24">
<path d="M24 0H0V24H24V0Z" fill="white"/>
</mask>
<g mask="url(#mask0_65_6289)">
<path d="M14 20C18.42 20 22 16.42 22 12C22 7.58 18.42 4 14 4H10C5.58 4 2 7.58 2 12C2 16.08 5.05 19.44 8.99 19.94" stroke="#2DC7FF" stroke-width="1.5" stroke-linecap="round" stroke-linejoin="round"/>
<path d="M14 8C11.79 8 10 9.79 10 12C10 14.21 11.79 16 14 16C16.21 16 18 14.21 18 12C18 11.52 17.91 11.05 17.76 10.62" stroke="#2DC7FF" stroke-width="1.5" stroke-linecap="round" stroke-linejoin="round"/>
</g>
</g>
<defs>
<clipPath id="clip0_65_6289">
<rect width="24" height="24" fill="white"/>
</clipPath>
</defs>
</svg>
